<svg xmlns="http://www.w3.org/2000/svg" width="30" height="30" viewBox="0 0 30 30">
    <defs>
        <style>
            .cls-2{fill:#fff}
        </style>
    </defs>
    <g id="Group_20763" data-name="Group 20763" transform="translate(-1311 -11)">
        <g id="Group_20761" data-name="Group 20761" transform="translate(1297.9 8.5)">
            <path id="Path_13320" d="M32.863 30.827a.634.634 0 0 1-.632.632H20.913a.634.634 0 0 1-.632-.632V13.345a.634.634 0 0 1 .632-.632h1.644V10.5h-2.75a1.7 1.7 0 0 0-1.707 1.707v24.057a1.7 1.7 0 0 0 1.707 1.707h13.562a1.7 1.7 0 0 0 1.707-1.707v-16.6h-2.213zM26.6 36.138a1.423 1.423 0 1 1 1.423-1.423 1.437 1.437 0 0 1-1.423 1.423z" class="cls-2" data-name="Path 13320" transform="translate(0 -5.471)"/>
            <path id="Path_13321" d="M49.839 2.5H39.565A1.869 1.869 0 0 0 37.7 4.365v6.2a1.869 1.869 0 0 0 1.865 1.865h1.075v1.96a1.006 1.006 0 0 0 1.739.7l2.5-2.655h4.932a1.869 1.869 0 0 0 1.865-1.865v-6.2a1.842 1.842 0 0 0-1.837-1.87zm-1.675 7.208h-6.923a.664.664 0 0 1 0-1.328h6.891a.648.648 0 0 1 .664.664.642.642 0 0 1-.632.664zm0-3.161h-6.923a.664.664 0 0 1 0-1.328h6.891a.648.648 0 0 1 .664.664.642.642 0 0 1-.632.663z" class="cls-2" data-name="Path 13321" transform="translate(-13.404)"/>
        </g>
    </g>
</svg>
