<svg xmlns="http://www.w3.org/2000/svg" width="38" height="38" viewBox="0 0 38 38">
    <defs>
        <style>
            .prefix__cls-1{fill:#fff;opacity:0}.prefix__cls-2{fill:#277de0}
        </style>
    </defs>
    <g id="prefix__Group_10117" data-name="Group 10117" transform="translate(18609 -15975)">
        <path id="prefix__Rectangle_855" d="M3 0h35v38H0V3a3 3 0 0 1 3-3z" class="prefix__cls-1" data-name="Rectangle 855" transform="translate(-18609 15975)"/>
        <g id="prefix__Group_10111" data-name="Group 10111" transform="translate(-132 -159)">
            <path id="prefix__Rectangle_860" d="M0 0H18V18H0z" class="prefix__cls-1" data-name="Rectangle 860" transform="translate(-18467 16144)"/>
            <g id="prefix__Group_10110" data-name="Group 10110" transform="translate(34.5 -71)">
                <path id="prefix__Path_6284" d="M18.681 5.317l-3.724-3.724a.292.292 0 0 0-.217-.093H5.7a1.2 1.2 0 0 0-1.2 1.2v5.94a.31.31 0 1 0 .621 0V2.7a.577.577 0 0 1 .579-.579h8.73v3.413a.31.31 0 0 0 .31.31h3.413V18.3a.577.577 0 0 1-.577.577H5.7a.577.577 0 0 1-.577-.577v-1.6a.31.31 0 1 0-.621 0v1.6a1.2 1.2 0 0 0 1.2 1.2h11.874a1.2 1.2 0 0 0 1.2-1.2V5.534a.292.292 0 0 0-.095-.217zM15.05 2.561l2.662 2.663H15.05z" class="prefix__cls-2" data-name="Path 6284" transform="translate(-18503.754 16213.5)"/>
                <path id="prefix__Path_6285" d="M15.58 19.72v-4.211a1 1 0 0 0-1.009-1.009H3.509A1 1 0 0 0 2.5 15.509v4.211a1 1 0 0 0 1.009 1.009h11.062a1 1 0 0 0 1.009-1.009zM5.3 18.43a1.071 1.071 0 0 0 .785.33 1.177 1.177 0 0 0 .461-.093 1.657 1.657 0 0 0 .424-.305l.355.361a1.626 1.626 0 0 1-1.246.573 1.669 1.669 0 0 1-1.246-.473 1.689 1.689 0 0 1 1.246-2.89 1.619 1.619 0 0 1 1.246.561l-.349.38a1.4 1.4 0 0 0-.436-.311 1.157 1.157 0 0 0-1.24.23 1.059 1.059 0 0 0-.336.81 1.121 1.121 0 0 0 .336.827zm4.628.623a1.283 1.283 0 0 1-.841.262 1.981 1.981 0 0 1-1.352-.523l.343-.417A1.551 1.551 0 0 0 9.1 18.8a.71.71 0 0 0 .424-.112.355.355 0 0 0 .156-.305.336.336 0 0 0-.149-.293 1.476 1.476 0 0 0-.5-.187 5.176 5.176 0 0 1-.542-.162 1.077 1.077 0 0 1-.33-.187.779.779 0 0 1-.287-.666.8.8 0 0 1 .33-.7 1.314 1.314 0 0 1 .81-.243 1.937 1.937 0 0 1 .623.1 1.613 1.613 0 0 1 .529.293l-.293.411a1.059 1.059 0 0 0-.392-.212 1.482 1.482 0 0 0-.486-.087.766.766 0 0 0-.392.1.324.324 0 0 0-.149.293.349.349 0 0 0 .149.305 2.491 2.491 0 0 0 .654.224 1.813 1.813 0 0 1 .754.336.816.816 0 0 1 .255.623.872.872 0 0 1-.336.7zm2.492.224h-.62l-1.3-3.245h.623l1 2.423 1-2.423h.623z" class="prefix__cls-2" data-name="Path 6285" transform="translate(-18503 16208.555)"/>
            </g>
        </g>
    </g>
</svg>
